<?xml version="1.0" encoding="UTF-8" standalone="no"?>
<svg
   width="64"
   height="64"
   viewBox="0 0 64 64"
   fill="none"
   version="1.1"
   id="svg25"
   sodipodi:docname="docker-jellyfin.svg"
   inkscape:version="1.3.2 (091e20ef0f, 2023-11-25, custom)"
   xmlns:inkscape="http://www.inkscape.org/namespaces/inkscape"
   xmlns:sodipodi="http://sodipodi.sourceforge.net/DTD/sodipodi-0.dtd"
   xmlns="http://www.w3.org/2000/svg"
   xmlns:svg="http://www.w3.org/2000/svg">
  <sodipodi:namedview
     id="namedview27"
     pagecolor="#ffffff"
     bordercolor="#666666"
     borderopacity="1.0"
     inkscape:showpageshadow="2"
     inkscape:pageopacity="0.0"
     inkscape:pagecheckerboard="0"
     inkscape:deskcolor="#d1d1d1"
     showgrid="false"
     inkscape:zoom="3.525097"
     inkscape:cx="-45.105142"
     inkscape:cy="48.934824"
     inkscape:window-width="1920"
     inkscape:window-height="1048"
     inkscape:window-x="0"
     inkscape:window-y="0"
     inkscape:window-maximized="1"
     inkscape:current-layer="svg25" />
  <path
     fill-rule="evenodd"
     clip-rule="evenodd"
     d="m 25.006685,0.33043641 c 0.348641,0.003712 0.681985,-0.040704 0.999745,-0.13321604 4.176643,-0.2736321 8.353286,-0.26252809 12.529609,0.033312 3.786563,0.2950401 7.452166,1.11664043 10.996808,2.46473683 5.892804,2.4260169 9.924807,6.6338903 12.096329,12.6235888 1.241921,3.606209 1.975041,7.314498 2.199361,11.124675 0.310401,4.784642 0.199361,9.558724 -0.33312,14.322245 -0.39872,3.348161 -1.264961,6.568003 -2.599362,9.659204 -2.474562,5.360001 -6.484164,9.057283 -12.029768,11.091523 -4.493444,1.518401 -9.114567,2.317761 -13.86241,2.398081 -5.340804,0.27776 -10.6282,-0.12192 -15.862124,-1.19904 C 9.5080823,60.569625 3.5653581,54.696343 1.3136764,45.0957 0.35815576,40.774098 -0.07506055,36.399697 0.01405951,31.972815 -0.09256457,27.265294 0.40727579,22.624268 1.5136446,18.050091 3.8740943,9.0737034 9.5723704,3.5113015 18.608601,1.3629808 20.71417,0.84819659 22.846876,0.50403647 25.006685,0.33043641 Z"
     fill="url(#paint0_linear_3_6)"
     id="path2"
     style="fill:url(#paint0_linear_3_6);stroke-width:3.2" />
  <defs
     id="defs23">
    <linearGradient
       id="paint0_linear_3_6"
       x1="12"
       y1="2"
       x2="12"
       y2="12"
       gradientUnits="userSpaceOnUse"
       gradientTransform="matrix(3.2000023,0,0,3.2000011,-6.3999931,-6.3999979)">
      <stop
         stop-color="#1C2E59"
         id="stop8"
         offset="0"
         style="stop-color:#30bbc4;stop-opacity:1;" />
      <stop
         offset="1"
         stop-color="#000B25"
         id="stop10"
         style="stop-color:#e4eef1;stop-opacity:1;" />
    </linearGradient>
    <linearGradient
       id="paint1_linear_3_6"
       x1="7.45363"
       y1="10.7156"
       x2="19.062"
       y2="17.417601"
       gradientUnits="userSpaceOnUse"
       gradientTransform="matrix(3.2000023,0,0,3.2000011,-6.3999931,-6.3999979)">
      <stop
         stop-color="#AA5CC3"
         id="stop13" />
      <stop
         offset="1"
         stop-color="#00A4DC"
         id="stop15" />
    </linearGradient>
    <linearGradient
       id="paint2_linear_3_6"
       x1="7.45364"
       y1="10.7156"
       x2="19.062"
       y2="17.417601"
       gradientUnits="userSpaceOnUse"
       gradientTransform="matrix(3.2000023,0,0,3.2000011,-6.3999931,-6.3999979)">
      <stop
         stop-color="#AA5CC3"
         id="stop18" />
      <stop
         offset="1"
         stop-color="#00A4DC"
         id="stop20" />
    </linearGradient>
  </defs>
  <path
     style="fill:#46b19e;stroke:none;stroke-width:0.104221"
     d="m 36.672944,7.357919 c -5.903265,0.8035519 -10.525706,4.590232 -13.757198,9.439808 -5.081165,7.62542 -6.784943,17.103066 -5.166833,26.055314 0.658972,3.645758 2.205092,7.457317 4.855699,10.107923 4.163147,4.163147 10.637021,4.682515 15.944316,2.626757 2.289794,-0.88694 5.326325,-2.365445 6.698545,-4.501203 0.872416,-1.357867 -0.60902,-4.052955 -2.217035,-4.045087 -0.6733,0.004 -1.037837,0.557231 -1.476787,0.978441 -0.744913,0.714785 -1.505495,1.33631 -2.379395,1.886834 -3.359674,2.116416 -8.320185,2.90142 -11.672773,0.356565 -3.458261,-2.625038 -4.678764,-7.125877 -5.011545,-11.266425 -0.520345,-6.473939 0.81642,-12.988868 4.073546,-18.655594 1.569774,-2.731077 3.687987,-5.410183 6.461721,-6.996095 2.678142,-1.531257 7.996405,-2.430076 8.619075,1.889256 0.0848,0.588012 0.02045,1.19117 -0.08166,1.771756 -0.76544,4.350933 -5.212303,8.092531 -9.266924,9.334564 -1.621653,0.496743 -3.002209,0.50435 -4.585738,-0.05366 -0.375086,-0.13218 -0.684944,-0.04806 -0.87872,0.313544 -0.903885,1.686558 -0.056,4.319645 1.920934,4.649899 2.421988,0.404603 5.122051,-0.546968 7.295491,-1.514898 4.586741,-2.042693 8.96681,-6.013927 10.377572,-10.957702 C 47.470027,15.116566 46.61018,10.47482 43.134698,8.4030018 41.265485,7.2887052 38.80157,7.0681492 36.672988,7.3578952 Z"
     id="path1" />
</svg>
